<svg xmlns="http://www.w3.org/2000/svg" height="40px" viewBox="0 -960 960 960" width="40px" fill="#000000"><path d="M791.68-113.17 530.83-373.86q-29.76 24.53-69.3 38.47-39.55 13.93-84.46 13.93-110.16 0-186.69-76.52-76.52-76.52-76.52-185.35 0-108.84 76.52-185.36 76.53-76.52 186.03-76.52 108.83 0 185.02 76.52 76.19 76.52 76.19 185.36 0 43.81-13.61 83.12-13.6 39.3-39.47 72.32l261.6 260.34-54.46 54.38ZM376.41-397.21q77.32 0 131.39-54.4 54.06-54.4 54.06-131.72 0-77.33-54.06-131.73-54.07-54.4-131.39-54.4-77.84 0-132.32 54.4-54.47 54.4-54.47 131.73 0 77.32 54.47 131.72 54.48 54.4 132.32 54.4Z"/></svg>