<svg xmlns="http://www.w3.org/2000/svg" height="40px" viewBox="0 -960 960 960" width="40px" fill="#000000"><path d="M339.17-533.5q11.5-11.5 11.5-28.5t-11.5-28.5q-11.5-11.5-28.5-11.5t-28.5 11.5q-11.5 11.5-11.5 28.5t11.5 28.5q11.5 11.5 28.5 11.5t28.5-11.5Zm171.33 0Q522-545 522-562t-11.5-28.5Q499-602 482-602t-28.5 11.5Q442-579 442-562t11.5 28.5Q465-522 482-522t28.5-11.5Zm166.67 0q11.5-11.5 11.5-28.5t-11.5-28.5q-11.5-11.5-28.5-11.5t-28.5 11.5q-11.5 11.5-11.5 28.5t11.5 28.5q11.5 11.5 28.5 11.5t28.5-11.5ZM80-80v-733.33q0-27 19.83-46.84Q119.67-880 146.67-880h666.66q27 0 46.84 19.83Q880-840.33 880-813.33v506.66q0 27-19.83 46.84Q840.33-240 813.33-240H240L80-80Zm131.33-226.67h602v-506.66H146.67v575l64.66-68.34Zm-64.66 0v-506.66 506.66Z"/></svg>